<?xml version="1.0" encoding="iso-8859-1"?>
<!-- Generator: Adobe Illustrator 19.0.0, SVG Export Plug-In . SVG Version: 6.00 Build 0)  -->
<svg version="1.1" id="Capa_1" xmlns="http://www.w3.org/2000/svg" xmlns:xlink="http://www.w3.org/1999/xlink" x="0px" y="0px"
	 viewBox="0 0 480.003 480.003" style="enable-background:new 0 0 480.003 480.003;" xml:space="preserve">
<g>
	<g>
		<path d="M402.242,390.93c9.136-19.936,13.76-41.08,13.76-62.928c0-26.04-6.6-50.552-18.184-72h74.184
			c3.232,0,6.16-1.952,7.392-4.936c1.24-2.992,0.552-6.432-1.736-8.72l-53.28-53.288c10.24-18.784,15.624-39.76,15.624-61.056
			c0-70.576-57.424-128-128-128c-60.712,0-112.768,43.032-125.072,101.592c-11.032-3.592-22.76-5.592-34.928-5.592
			c-61.76,0-112,50.24-112,112c0,17.048,3.936,33.944,11.44,49.24L2.346,306.346c-2.288,2.288-2.976,5.728-1.736,8.72
			c1.232,2.984,4.16,4.936,7.392,4.936H112.41c-0.144,2.664-0.408,5.296-0.408,8c0,83.816,68.184,152,152,152h208
			c3.232,0,6.16-1.952,7.392-4.936c1.24-2.992,0.552-6.432-1.736-8.72L402.242,390.93z M312.002,16.002c61.76,0,112,50.24,112,112
			c0,20.448-5.688,40.576-16.456,58.208c-1.92,3.152-1.44,7.208,1.168,9.824l43.976,43.968h-64.776
			c-7.848-11.032-17.04-20.784-27.232-29.2c-0.04-0.032-0.08-0.064-0.12-0.104c-7.384-6.088-15.304-11.44-23.648-16.016
			c-0.296-0.168-0.592-0.336-0.896-0.496c-4.008-2.16-8.112-4.144-12.296-5.936c-0.544-0.232-1.104-0.448-1.656-0.68
			c-4.128-1.712-8.32-3.28-12.6-4.624c-0.136-0.04-0.272-0.096-0.408-0.136c-4.232-1.312-8.544-2.384-12.896-3.32
			c-0.904-0.2-1.808-0.4-2.72-0.584c-4.264-0.84-8.568-1.504-12.92-1.976c-0.848-0.096-1.712-0.152-2.568-0.232
			c-4.616-0.416-9.264-0.696-13.952-0.696c-1.576,0-3.152,0.04-4.704,0.112c-0.112-0.376-0.28-0.736-0.392-1.112
			c-9.192-30.008-30.064-53.904-56.944-67.256C211.577,55.049,257.89,16.002,312.002,16.002z M123.354,270.554
			c-1.44,3.52-2.76,7.096-3.936,10.744c-0.608,1.88-1.104,3.8-1.64,5.712c-0.672,2.416-1.328,4.84-1.88,7.312
			c-0.512,2.24-0.952,4.496-1.36,6.768c-0.176,0.976-0.432,1.928-0.584,2.912h-86.64l39.6-39.608c2.528-2.528,3.072-6.44,1.32-9.568
			c-8-14.28-12.232-30.48-12.232-46.824c0-52.936,43.064-96,96-96c13.176,0,25.792,2.64,37.304,7.464
			c0.224,0.12,0.4,0.304,0.632,0.408c24.152,10.448,42.896,30.448,51.944,54.76c0.176,0.472,0.368,0.944,0.536,1.424
			c0.176,0.504,0.288,1.04,0.456,1.552c-0.416,0.056-0.816,0.16-1.232,0.224c-0.592,0.088-1.184,0.176-1.776,0.272
			c-0.016,0-0.032-0.008-0.056,0l-1.192,0.176c-0.024,0-0.04,0.016-0.064,0.024c-10.072,1.712-19.8,4.392-29.096,7.984
			c-0.76,0.296-1.544,0.536-2.304,0.848c-2.52,1.016-4.96,2.16-7.408,3.312c-1.72,0.8-3.44,1.608-5.128,2.472
			c-2.072,1.064-4.104,2.184-6.112,3.336c-2.08,1.192-4.12,2.448-6.136,3.736c-1.632,1.048-3.28,2.072-4.872,3.184
			c-2.744,1.904-5.4,3.92-8.008,5.992c-0.816,0.656-1.68,1.248-2.488,1.92c-3.512,2.912-6.872,5.976-10.104,9.192
			c-0.52,0.512-0.992,1.064-1.504,1.592c-2.68,2.736-5.248,5.56-7.72,8.488c-0.776,0.92-1.512,1.872-2.264,2.808
			c-2.128,2.656-4.168,5.376-6.112,8.176c-0.744,1.064-1.48,2.12-2.192,3.2c-1.912,2.904-3.704,5.88-5.424,8.912
			c-0.56,0.992-1.16,1.96-1.704,2.96c-2.144,4.008-4.152,8.096-5.936,12.304C123.786,269.322,123.594,269.953,123.354,270.554z
			 M264.002,464.002c-74.992,0-136-61.008-136-136c0-5.368,0.392-10.64,1.008-15.848c0.696-6.016,1.88-11.864,3.328-17.6
			c0.496-1.952,0.928-3.928,1.504-5.84c0.552-1.832,1.232-3.6,1.856-5.4c0.784-2.248,1.56-4.504,2.456-6.696
			c0.648-1.584,1.376-3.128,2.088-4.68c1.064-2.336,2.152-4.664,3.344-6.928c0.728-1.384,1.496-2.736,2.264-4.096
			c1.344-2.352,2.736-4.664,4.216-6.928c0.792-1.216,1.592-2.416,2.416-3.6c1.616-2.312,3.312-4.56,5.064-6.76
			c0.84-1.056,1.664-2.128,2.536-3.16c1.888-2.24,3.872-4.384,5.904-6.496c0.872-0.904,1.704-1.848,2.6-2.728
			c2.208-2.176,4.528-4.232,6.88-6.256c0.824-0.712,1.608-1.48,2.448-2.168c3.104-2.544,6.328-4.96,9.656-7.224
			c1.864-1.264,3.824-2.392,5.752-3.56c1.504-0.92,2.976-1.88,4.512-2.744c2.4-1.336,4.888-2.536,7.376-3.736
			c1.12-0.536,2.224-1.112,3.36-1.616c2.6-1.16,5.264-2.2,7.952-3.192c0.024-0.008,0.048-0.008,0.072-0.016c0.008,0,0.008,0,0.016,0
			c0.72-0.264,1.44-0.52,2.16-0.768c1.032-0.344,2.064-0.68,3.096-1.016l0.544-0.176c0.024-0.008,0.04-0.024,0.056-0.032
			c2.032-0.648,4.064-1.304,6.136-1.864c0.016,0,0.024,0,0.04-0.008c0.64-0.168,1.288-0.328,1.936-0.48
			c0.256-0.064,0.52-0.128,0.792-0.184l1.384-0.328c0.016-0.008,0.032-0.016,0.048-0.024c2.808-0.656,5.616-1.296,8.488-1.784
			c0.192-0.032,0.384-0.056,0.576-0.088c0.04-0.008,0.072,0,0.112-0.008c0.08-0.008,0.2-0.032,0.336-0.048
			c0.2-0.024,0.424-0.056,0.448-0.064c0.032-0.008,0.056-0.016,0.088-0.016c3.624-0.568,7.28-1.032,10.992-1.304
			c0.008,0,0.008-0.008,0.016-0.008c3.36-0.264,6.72-0.528,10.144-0.528c4.184,0,8.312,0.256,12.4,0.632
			c0.848,0.08,1.696,0.144,2.544,0.24c3.912,0.432,7.768,1.016,11.568,1.768c0.792,0.16,1.584,0.352,2.368,0.52
			c3.568,0.776,7.088,1.672,10.552,2.72c0.424,0.128,0.864,0.232,1.288,0.368c3.808,1.2,7.52,2.584,11.176,4.096
			c0.64,0.264,1.28,0.536,1.912,0.808c7.696,3.328,15.04,7.32,21.92,11.952c0.136,0.088,0.272,0.176,0.4,0.264
			c10.68,7.24,20.264,15.96,28.488,25.864c0.216,0.256,0.416,0.52,0.632,0.776c19.2,23.448,30.752,53.392,30.752,85.992
			c0,21.248-4.896,41.768-14.568,60.984c-1.552,3.08-0.944,6.808,1.488,9.248l65.768,65.768H264.002z"/>
	</g>
</g>
<g>
	<g>
		<rect x="192.002" y="256.002" width="144" height="16"/>
	</g>
</g>
<g>
	<g>
		<rect x="192.002" y="288.002" width="144" height="16"/>
	</g>
</g>
<g>
	<g>
		<rect x="192.002" y="320.002" width="144" height="16"/>
	</g>
</g>
<g>
	<g>
		<rect x="264.002" y="72.002" width="96" height="16"/>
	</g>
</g>
<g>
	<g>
		<rect x="264.002" y="104.002" width="96" height="16"/>
	</g>
</g>
<g>
	<g>
		<rect x="264.002" y="136.002" width="96" height="16"/>
	</g>
</g>
<g>
	<g>
		<rect x="192.002" y="352.002" width="144" height="16"/>
	</g>
</g>
<g>
	<g>
		<rect x="192.002" y="384.002" width="144" height="16"/>
	</g>
</g>
<g>
	<g>
		<rect x="104.002" y="152.002" width="16" height="16"/>
	</g>
</g>
<g>
	<g>
		<rect x="136.002" y="152.002" width="16" height="16"/>
	</g>
</g>
<g>
	<g>
		<rect x="104.002" y="184.002" width="16" height="16"/>
	</g>
</g>
<g>
	<g>
		<rect x="136.002" y="184.002" width="16" height="16"/>
	</g>
</g>
<g>
	<g>
		<rect x="168.002" y="152.002" width="16" height="16"/>
	</g>
</g>
<g>
</g>
<g>
</g>
<g>
</g>
<g>
</g>
<g>
</g>
<g>
</g>
<g>
</g>
<g>
</g>
<g>
</g>
<g>
</g>
<g>
</g>
<g>
</g>
<g>
</g>
<g>
</g>
<g>
</g>
</svg>
