<?xml version="1.0" encoding="utf-8"?>
<!-- Generator: Adobe Illustrator 23.0.4, SVG Export Plug-In . SVG Version: 6.00 Build 0)  -->
<svg version="1.1" id="Layer_1" xmlns="http://www.w3.org/2000/svg" xmlns:xlink="http://www.w3.org/1999/xlink" x="0px" y="0px"
	 viewBox="0 0 203 180" style="enable-background:new 0 0 203 180;" xml:space="preserve">
<style type="text/css">
	.st0{fill:none;stroke:#4E1681;stroke-width:5;stroke-miterlimit:10;}
	.st1{fill:#4E1681;stroke:#4E1681;stroke-miterlimit:10;}
</style>
<path class="st0" d="M91.76,62h15.06c9.03,0,16.56,6.4,18.3,14.92"/>
<path class="st0" d="M63.56,132h-8.38c-10.32,0-18.68-8.36-18.68-18.68V80.68C36.5,70.36,44.86,62,55.18,62h36.58"/>
<path class="st0" d="M63.56,132"/>
<path class="st0" d="M125.12,76.92c0.25,1.22,0.38,2.48,0.38,3.76v32.64c0,10.32-8.36,18.68-18.68,18.68H82.66"/>
<path class="st0" d="M125.37,78.5h-17.61c-9.53,0-17.26-7.73-17.26-17.26"/>
<path class="st0" d="M90.5,61.24V41.76c0-9.53,7.73-17.26,17.26-17.26h41.48c9.53,0,17.26,7.73,17.26,17.26v19.48
	c0,9.53-7.73,17.26-17.26,17.26H143"/>
<polyline class="st0" points="125.5,78.5 145.5,96.5 145.5,78.5 144.5,78.5 "/>
<line class="st0" x1="87.77" y1="132" x2="87.08" y2="132"/>
<polyline class="st0" points="61,131 61.11,151.5 84,131 "/>
<circle class="st1" cx="61" cy="98" r="4.5"/>
<circle class="st1" cx="81.5" cy="98.5" r="4.5"/>
<circle class="st1" cx="100.5" cy="98.5" r="4.5"/>
<path class="st1" d="M145,47h-33c-1.66,0-3-1.34-3-3v0c0-1.66,1.34-3,3-3h33c1.66,0,3,1.34,3,3v0C148,45.66,146.66,47,145,47z"/>
<path class="st1" d="M144,59h-33c-1.66,0-3-1.34-3-3v0c0-1.66,1.34-3,3-3h33c1.66,0,3,1.34,3,3v0C147,57.66,145.66,59,144,59z"/>
</svg>
