<?xml version="1.0" encoding="utf-8"?>
<!-- Generator: Adobe Illustrator 23.0.4, SVG Export Plug-In . SVG Version: 6.00 Build 0)  -->
<svg version="1.1" id="Layer_1" xmlns="http://www.w3.org/2000/svg" xmlns:xlink="http://www.w3.org/1999/xlink" x="0px" y="0px"
	 viewBox="0 0 203 180" style="enable-background:new 0 0 203 180;" xml:space="preserve">
<style type="text/css">
	.st0{stroke:#4E1681;stroke-miterlimit:10;}
	.st1{fill:none;stroke:#4E1681;stroke-width:5;stroke-miterlimit:10;}
	.st2{fill:#4E1681;stroke:#4E1681;stroke-miterlimit:10;}
</style>
<path class="st0" d="M119,69"/>
<path class="st1" d="M68.53,87.9l-13.23,14.34c-1.78,1.92-4.78,2.05-6.7,0.27l-1.85-1.71c-1.92-1.78-2.05-4.78-0.27-6.7l13.23-14.34
	c1.78-1.92,4.78-2.05,6.7-0.27l1.85,1.71C70.18,82.97,70.3,85.97,68.53,87.9z"/>
<path class="st1" d="M92.53,110.9l-13.23,14.34c-1.78,1.92-4.78,2.05-6.7,0.27l-1.85-1.71c-1.92-1.78-2.05-4.78-0.27-6.7
	l13.23-14.34c1.78-1.92,4.78-2.05,6.7-0.27l1.85,1.71C94.18,105.97,94.3,108.97,92.53,110.9z"/>
<path class="st1" d="M80.53,98.9l-13.23,14.34c-1.78,1.92-4.78,2.05-6.7,0.27l-1.85-1.71c-1.92-1.78-2.05-4.78-0.27-6.7l13.23-14.34
	c1.78-1.92,4.78-2.05,6.7-0.27l1.85,1.71C82.18,93.97,82.3,96.97,80.53,98.9z"/>
<path class="st1" d="M104.53,122.9l-13.23,14.34c-1.78,1.92-4.78,2.05-6.7,0.27l-1.85-1.71c-1.92-1.78-2.05-4.78-0.27-6.7
	l13.23-14.34c1.78-1.92,4.78-2.05,6.7-0.27l1.85,1.71C106.18,117.97,106.3,120.97,104.53,122.9z"/>
<path class="st1" d="M108.82,126.16l3.56,3.56c1.92,1.92,1.92,5.03,0,6.94l-0.47,0.47c-1.92,1.92-5.03,1.92-6.94,0l-3.56-3.56
	c-1.92-1.92-1.92-5.03,0-6.94l0.47-0.47C103.8,124.24,106.91,124.24,108.82,126.16z"/>
<path class="st1" d="M48.56,88.54C44.74,82.99,42.5,76.25,42.5,69c0-19.05,15.45-34.5,34.5-34.5c9.25,0,17.65,3.64,23.84,9.56"/>
<path class="st1" d="M147.68,98c8.02-6.51,13.17-16.61,13.17-27.94c0-19.64-15.45-35.56-34.5-35.56c-9.25,0-17.65,3.75-23.84,9.86"
	/>
<path class="st1" d="M102.5,111.22"/>
<path class="st1" d="M127.09,121.94c1.18,1.91,0.87,4.46-0.87,6.02l-2.96,2.66c-1.95,1.75-4.95,1.59-6.7-0.36l-13.05-14.51"/>
<path class="st1" d="M113.5,100.22"/>
<path class="st1" d="M137.2,109.84l0.38,0.42c1.75,1.95,1.59,4.95-0.36,6.7l-2.96,2.66c-1.73,1.56-4.29,1.6-6.07,0.23"/>
<path class="st1" d="M124.5,89.22"/>
<path class="st1" d="M134.35,86.66l12.23,13.6c1.75,1.95,1.59,4.95-0.36,6.7l-2.96,2.66c-1.95,1.75-4.95,1.59-6.7-0.36"/>
<path class="st2" d="M129.61,122.8l-0.74,0.62c-1.27,1.07-3.16,0.91-4.23-0.36l-14.92-17.7c-1.07-1.27-0.91-3.16,0.36-4.23
	l0.74-0.62c1.27-1.07,3.16-0.91,4.23,0.36l14.92,17.7C131.03,119.84,130.87,121.73,129.61,122.8z"/>
<path class="st2" d="M139.61,112.8l-0.31,0.26c-1.27,1.07-3.16,0.91-4.23-0.36l-14.92-17.7c-1.07-1.27-0.91-3.16,0.36-4.23
	l0.31-0.26c1.27-1.07,3.16-0.91,4.23,0.36l14.92,17.7C141.03,109.84,140.87,111.73,139.61,112.8z"/>
<path class="st1" d="M103.51,43.4L75.5,64.5c0.56,3.94,2.87,7.09,6,8c1.16,0.34,2.11,0.28,4,0c6.03-0.9,9.05-1.36,13-3
	c6.58-2.74,5.94-5.39,10-6c4.51-0.68,6.5,2.16,11,3c3.76,0.7,9.6,0.06,18-7"/>
<line class="st1" x1="112" y1="64" x2="146.73" y2="99.44"/>
</svg>
