<?xml version="1.0" encoding="utf-8"?>
<!-- Generator: Adobe Illustrator 23.0.4, SVG Export Plug-In . SVG Version: 6.00 Build 0)  -->
<svg version="1.1" id="Layer_1" xmlns="http://www.w3.org/2000/svg" xmlns:xlink="http://www.w3.org/1999/xlink" x="0px" y="0px"
	 viewBox="0 0 203 180" style="enable-background:new 0 0 203 180;" xml:space="preserve">
<style type="text/css">
	.st0{fill:none;stroke:#4E1681;stroke-width:5;stroke-miterlimit:10;}
</style>
<circle class="st0" cx="101.5" cy="64.5" r="17"/>
<path class="st0" d="M71.12,114.18c-0.4-2-0.62-4.07-0.62-6.18c0-13.9,9.15-25.63,21.66-29.31"/>
<path class="st0" d="M111.53,79.63c11.11,4.47,18.97,15.49,18.97,28.37c0,2.11-0.21,4.16-0.61,6.15"/>
<path class="st0" d="M129.91,112.92c-1.14,2.69-3.8,4.58-6.91,4.58H78c-3.02,0-5.62-1.78-6.81-4.35"/>
<ellipse class="st0" cx="60.51" cy="61.02" rx="12.89" ry="12.02"/>
<path class="st0" d="M37.47,96.16C37.16,94.74,37,93.28,37,91.78c0-9.83,6.94-18.13,16.42-20.72"/>
<path class="st0" d="M68.11,71.72c5.86,2.2,10.53,6.64,12.83,12.21"/>
<path class="st0" d="M72.33,98.5H42.69c-2.29,0-4.26-1.26-5.16-3.08"/>
<ellipse class="st0" cx="141.51" cy="60.02" rx="12.89" ry="12.02"/>
<path class="st0" d="M119.12,84.08c2.33-6.76,8.08-12.05,15.31-14.03"/>
<path class="st0" d="M149.11,70.72c8.43,3.16,14.39,10.95,14.39,20.06c0,1.49-0.16,2.94-0.46,4.35"/>
<path class="st0" d="M163.05,94.26c-0.86,1.9-2.88,3.24-5.24,3.24h-29.57"/>
</svg>
