<?xml version="1.0" encoding="utf-8"?>
<!-- Generator: Adobe Illustrator 23.0.4, SVG Export Plug-In . SVG Version: 6.00 Build 0)  -->
<svg version="1.1" id="Layer_1" xmlns="http://www.w3.org/2000/svg" xmlns:xlink="http://www.w3.org/1999/xlink" x="0px" y="0px"
	 viewBox="0 0 203 180" style="enable-background:new 0 0 203 180;" xml:space="preserve">
<style type="text/css">
	.st0{fill:none;stroke:#4E1681;stroke-width:5;stroke-miterlimit:10;}
	.st1{fill:none;stroke:#4E1681;stroke-width:4;stroke-miterlimit:10;}
</style>
<path class="st0" d="M158.5,58c0,18.5-15,33.5-33.5,33.5c-19.55,0-31.94-17.54-33.36-30.47c-0.14-1.3-0.15-2.33-0.14-3.03
	c0.32-13.73,12.83-33.5,33.5-33.5c3.76,0,6.56,0.64,8.14,1.07c12.93,3.5,23.47,15.48,25.14,28.51C158.39,54.96,158.5,56.26,158.5,58
	z"/>
<circle class="st0" cx="60.5" cy="122.5" r="24"/>
<circle class="st0" cx="103.5" cy="133.5" r="12"/>
<path class="st0" d="M97.38,122.9"/>
<path class="st0" d="M97.38,122.9c-3.71-3.23-5.88-7.16-5.88-11.4c0-11.05,14.77-20,33-20s33,8.95,33,20s-14.77,20-33,20
	c-3.12,0-6.14-0.26-9-0.75"/>
<path class="st0" d="M91.5,105.04"/>
<path class="st0" d="M139.6,128.18l2.9,2.32c4.55,1.68,7.28,2.56,9.04,3.22c3.34,1.25,4.41,5.45,2.13,8.18l-2.17,2.6
	c-2.65,3.53-9.47-5.35-13-8l-7.31-5"/>
<path class="st0" d="M91.5,105.04l-51.17-35c-3.53-2.65-4.24-7.67-1.59-11.2l0,0c2.65-3.53,7.67-4.24,11.2-1.59l49.58,39.67"/>
<path class="st0" d="M97.39,99.16c4.14,1.68,7.11,6.34,7.11,11.84c0,5.5-2.99,10.18-7.14,11.85"/>
<path class="st0" d="M151.25,123.07c-4.46-1.44-7.75-6.3-7.75-12.07c0-5.98,3.53-10.98,8.25-12.21"/>
<path class="st0" d="M111.98,124.86c-1.24,2.71-4.57,4.64-8.48,4.64c-3.96,0-7.32-1.99-8.52-4.75"/>
<path class="st0" d="M94.98,141.24c1.21-2.76,4.57-4.74,8.52-4.74c3.94,0,7.29,1.97,8.51,4.71"/>
<path class="st0" d="M109.5,106.66c5.07-1.34,14.56-3.09,24.06,0c1.23,0.4,2.38,0.85,3.44,1.34"/>
<line class="st1" x1="116" y1="100" x2="116" y2="111"/>
<line class="st1" x1="124" y1="100" x2="124" y2="111"/>
<line class="st1" x1="132" y1="100" x2="132" y2="111"/>
<path class="st1" d="M97,74c3.94-4.12,9.7-8.74,16-8c3.81,0.45,6.28,2.68,8,4c5.06,3.89,13.82,7.75,30,7"/>
<path class="st0" d="M157.5,55.5c-5.72-1.93-35.81-11.47-61,5c-1.25,0.82-2.44,1.67-3.57,2.54"/>
<path class="st0" d="M132.5,27.5c-1.89,3.02-10.11,15.42-25,18c-4.19,0.72-7.96,0.51-11,0"/>
<polyline class="st0" points="49.5,102.5 52.5,109.5 61.5,109.5 69.5,101.5 "/>
<polyline class="st0" points="38.5,122.5 48.5,118.5 52.5,109.5 "/>
<polyline class="st0" points="50.5,142.5 58.5,134.5 67.5,133.5 68.5,143.5 "/>
<polyline class="st0" points="81.72,113 69.5,131.5 80.71,131.5 83,131.5 "/>
<polyline class="st0" points="61.5,110.5 64.5,118.5 57.5,124.5 49.5,119.5 47.94,118.73 "/>
<line class="st0" x1="57.5" y1="124.5" x2="58.5" y2="134.5"/>
<line class="st0" x1="64.5" y1="118.5" x2="73.4" y2="124.08"/>
</svg>
